<?xml version="1.0" encoding="utf-8"?>
<!-- Generator: Adobe Illustrator 15.0.2, SVG Export Plug-In . SVG Version: 6.00 Build 0)  -->
<!DOCTYPE svg PUBLIC "-//W3C//DTD SVG 1.1//EN" "http://www.w3.org/Graphics/SVG/1.1/DTD/svg11.dtd">
<svg version="1.1"
	 id="svg2" inkscape:version="0.48.2 r9819" sodipodi:docname="MUTCD D9-1.svg" xmlns:rdf="http://www.w3.org/1999/02/22-rdf-syntax-ns#" xmlns:cc="http://creativxstarons.org/ns#" xmlns:dc="http://purl.org/dc/elements/1.1/" xmlns:sodipodi="http://sodipodi.sourceforge.net/DTD/sodipodi-0.dtd" xmlns:svg="http://www.w3.org/2000/svg" xmlns:inkscape="http://www.inkscape.org/namespaces/inkscape"
	 xmlns="http://www.w3.org/2000/svg" xmlns:xlink="http://www.w3.org/1999/xlink" x="0px" y="0px" width="81.596px"
	 height="81.596px" viewBox="0 0 81.596 81.596" enable-background="new 0 0 81.596 81.596" xml:space="preserve">
<sodipodi:namedview  inkscape:pageopacity="0" inkscape:window-y="-8" fit-margin-right="0" inkscape:current-layer="svg2" fit-margin-bottom="0" inkscape:window-x="-8" inkscape:window-height="1004" inkscape:guide-bbox="true" inkscape:pageshadow="2" inkscape:window-width="1280" id="namedview58" showguides="true" objecttolerance="10" inkscape:cy="19.412365" showgrid="false" borderopacity="1" pagecolor="#ffffff" bordercolor="#666666" inkscape:cx="30.16135" guidetolerance="10" fit-margin-left="0" gridtolerance="10" inkscape:zoom="3.8704158" fit-margin-top="0" inkscape:window-maximized="1">
	</sodipodi:namedview>
<polygon id="polygon10" fill="none" stroke="#FFFFFF" stroke-width="40" points="-963.049,6003.713 -934.702,6063.949 
	-963.049,6124.186 -991.396,6063.949 "/>
<path id="path3924" inkscape:connector-curvature="0" fill="#FFFFFF" stroke="#000000" d="M7.503,0.299h66.586
	c3.964,0,7.207,3.244,7.207,7.207v66.587c0,3.965-3.243,7.207-7.207,7.207H7.503c-3.964,0-7.207-3.242-7.207-7.207V7.506
	C0.296,3.543,3.539,0.299,7.503,0.299"/>
<path id="path3948" inkscape:connector-curvature="0" fill="#155196" d="M7.503,2.1h66.586c2.975,0,5.409,2.434,5.409,5.406v66.587
	c0,2.976-2.435,5.408-5.409,5.408H7.503c-2.973,0-5.405-2.433-5.405-5.408V7.506C2.098,4.533,4.53,2.1,7.503,2.1"/>
<g>
	<path fill="#FFFFFF" d="M20.158,11.528h42.32v10.16H31.918v12.24h28.08v10.08h-28.08v14.88h31.84v10.16h-43.6V11.528z"/>
</g>
</svg>
